<svg width="118" height="48" viewBox="0 0 118 48" fill="none" xmlns="http://www.w3.org/2000/svg">
<path d="M103.307 46.5278C103.307 46.0227 103.686 44.7811 103.686 44.7811H104.381C104.528 46.5699 105.749 47.117 106.675 47.117C107.453 47.117 108 46.6961 108 45.9596C108 43.8761 103.539 44.1708 103.539 40.9088C103.539 39.0147 105.054 37.9204 107.117 37.9204C108.358 37.9204 110.021 38.3203 110.021 38.3203L109.537 40.6983H108.821C108.716 39.0779 107.727 38.8043 107.117 38.8043C106.359 38.8043 105.875 39.2462 105.875 39.9407C105.875 42.0663 110.315 41.5822 110.315 44.9284C110.315 47.0118 108.653 48.0009 106.59 48.0009C105.328 48.0009 103.307 47.6011 103.307 46.5278Z" fill="white"/>
<path d="M91.4873 47.8111V47.0956C92.3501 46.9903 92.6869 46.4853 92.6869 45.7276V35.142C92.6869 34.2792 92.6658 33.7531 92.0555 33.7531H91.2769V33.0796C94.644 32.4062 95.5279 32.0063 95.5279 32.0063L95.5911 32.0695C95.5911 32.0695 95.3806 32.8271 95.3806 34.4476V42.0448H95.7384L97.8008 40.2349C98.2427 39.8351 98.5584 39.5615 98.5584 39.2669C98.5584 39.0564 98.369 38.9091 97.906 38.8039V38.1725H101.968L102.073 38.5092C102.073 38.5092 100.6 38.9933 99.8632 39.6667L97.885 41.4345V41.7291C97.885 41.7291 98.0323 41.9606 98.1586 42.1079L101.042 45.8539C101.841 46.8641 102.136 46.9483 102.62 46.9903L102.852 47.0114L102.767 47.748L98.9372 47.8111C98.9372 47.8111 98.7268 47.0324 98.2217 46.359L95.7384 42.9708H95.3806V45.7276C95.3806 46.359 95.2754 46.8641 95.2754 46.8641L96.7485 47.0535L96.6644 47.6848L91.4873 47.8111Z" fill="white"/>
<path d="M82.1172 43.2237C82.1172 40.7194 83.8639 37.9204 87.1259 37.9204C88.3886 37.9204 90.5141 38.3413 90.5141 39.604C90.5141 40.1301 90.1143 40.6352 89.4829 40.6352C88.2833 40.6352 88.3254 38.8464 86.8313 38.8464C85.4002 38.8464 84.6215 40.4668 84.6215 42.3188C84.6215 44.4443 85.6527 46.1069 87.8204 46.1069C89.2725 46.1069 90.3037 45.3703 90.3037 45.3703L90.5562 45.9806C90.5562 45.9806 89.4198 48.0009 86.6839 48.0009C83.7587 48.0009 82.1172 45.686 82.1172 43.2237Z" fill="white"/>
<path d="M71.7546 45.6439C71.7546 43.5184 74.2169 42.5082 76.3635 42.1925L77.1001 42.0873C77.1001 41.3928 77.1001 40.3827 76.9948 39.8776C76.8686 39.2673 76.5529 38.8674 76.0057 38.8674C74.8062 38.8674 73.9854 41.1192 73.9854 41.1192H73.0173L72.5543 39.2673C72.5543 39.2673 74.259 37.9204 77.0159 37.9204C79.2256 37.9204 79.7728 38.7622 79.7728 40.9298V45.6649C79.7728 46.2963 79.878 46.6541 80.2778 46.6541C80.7198 46.6541 81.2038 46.2963 81.2038 46.2963L81.5405 46.8645C81.5405 46.8645 80.5093 48.0009 78.931 48.0009C77.8577 48.0009 77.1632 47.4959 77.1632 46.5909V46.2542C77.1632 46.2542 76.0688 48.0009 74.2169 48.0009C72.9752 48.0009 71.7546 47.2223 71.7546 45.6439ZM75.5006 46.3384C76.0689 46.3384 76.6581 46.0227 77.079 45.6649V43.0343L76.5108 43.1396C75.4165 43.329 74.4905 43.9182 74.4905 45.1178C74.4905 45.7702 74.7851 46.3384 75.5006 46.3384Z" fill="white"/>
<path d="M55.1632 47.8108V47.0321C56.0471 46.9269 56.5732 46.4218 56.5732 45.6642V35.8783C56.5732 34.8681 56.5732 34.6577 55.1211 34.342V33.7106H56.6574C59.288 33.7106 59.9825 33.6265 59.9825 33.6265L60.0877 33.7106C60.0877 33.7106 59.3932 34.6156 59.3932 36.3623V40.0241H66.0645L66.317 39.7716V35.8783C66.317 34.8681 66.317 34.6577 64.8649 34.342V33.7106H66.4012C69.0318 33.7106 69.7263 33.6265 69.7263 33.6265L69.8315 33.7106C69.8315 33.7106 69.137 34.6156 69.137 36.3623V45.6642C69.137 46.2955 69.0318 46.8006 69.0318 46.8006L70.8206 46.99L70.7364 47.6845L64.907 47.8108V47.0321C65.7698 46.9269 66.317 46.4428 66.317 45.7273V41.1816H59.6458L59.3932 41.4341V45.6642C59.3932 46.2955 59.288 46.8006 59.288 46.8006L61.0768 46.99L60.9926 47.6845L55.1632 47.8108Z" fill="white"/>
<path d="M43.4432 45.2441V40.8878C43.4432 40.2775 43.5063 39.5199 43.5063 39.5199H42.1594V38.6149C42.1594 38.6149 43.1275 38.4255 43.6326 37.9626L44.4323 35.5845L46.2421 35.6476L46.3053 35.7107C46.3053 35.7107 46.1159 36.1737 46.1159 37.7731V38.173H49.1043L48.9569 39.4567H46.3895L46.1369 39.7093V44.3813C46.1369 45.6019 46.3684 46.3174 47.4627 46.3174C48.3887 46.3174 49.2516 45.8334 49.2516 45.8334L49.5883 46.3805C49.5883 46.3805 48.1783 48.001 46.0106 48.001C44.4954 48.001 43.4432 47.2013 43.4432 45.2441Z" fill="white"/>
<path d="M30.185 47.8108V47.0952C31.0478 46.99 31.3845 46.4849 31.3845 45.7273V40.7397C31.3845 39.8768 31.3635 39.3507 30.7532 39.3507H29.9114V38.6772C32.3947 38.2774 34.1625 37.625 34.1625 37.625L34.2256 37.6881C34.2256 37.6881 34.0362 38.1511 33.931 40.0241C34.6675 39.0561 35.9513 37.9196 37.677 37.9196C39.1291 37.9196 40.1813 38.7193 40.1813 40.7607V45.7273C40.1813 46.3586 40.0761 46.8427 40.0761 46.8427L41.7597 47.0531L41.6755 47.6845L36.5405 47.8108V47.0952C37.2561 46.99 37.4876 46.4849 37.4876 45.7273V41.5814C37.4876 40.1083 37.1298 39.7716 36.309 39.7716C35.6146 39.7716 34.7517 40.0241 34.0783 40.5502V45.7273C34.0783 46.3586 33.9731 46.8427 33.9731 46.8427L35.2989 47.0531L35.2147 47.6845L30.185 47.8108Z" fill="white"/>
<path d="M23.8551 47.8114V47.0959C24.718 46.9907 25.0547 46.4856 25.0547 45.728V40.7403C25.0547 39.8775 25.0336 39.3514 24.4233 39.3514H23.5815V38.6779C26.0648 38.2781 27.8747 37.6257 27.8747 37.6257L27.9378 37.6888C27.9378 37.6888 27.7484 38.3833 27.7484 40.0879V45.728C27.7484 46.3593 27.6432 46.8644 27.6432 46.8644L29.3268 47.0538L29.2426 47.6852L23.8551 47.8114ZM26.2122 36.0894C25.3072 36.0894 24.6548 35.4791 24.6548 34.6163C24.6548 33.7324 25.3072 33.1221 26.2122 33.1221C27.1171 33.1221 27.7695 33.7324 27.7695 34.6163C27.7695 35.4791 27.1171 36.0894 26.2122 36.0894Z" fill="white"/>
<path d="M12.2825 43.1606C12.2825 40.6773 13.8188 37.9204 17.5648 37.9204C20.7215 37.9204 22.6366 39.8565 22.6366 42.5924C22.6366 45.244 20.8688 48.0009 17.2912 48.0009C14.2397 48.0009 12.2825 45.9806 12.2825 43.1606ZM15.1867 42.6134C15.1867 44.6548 15.9022 47.075 17.6279 47.075C19.3957 47.075 19.7534 44.4864 19.7113 42.9922C19.6903 41.0982 19.0169 38.8464 17.3333 38.8464C15.8391 38.8464 15.1867 40.6563 15.1867 42.6134Z" fill="white"/>
<path d="M1.01001 47.811V47.0324C1.87285 46.9272 2.42002 46.4431 2.42002 45.7276V35.8786C2.42002 34.8684 2.3148 34.658 0.799561 34.3423V33.7109H6.71319C9.21754 33.7109 12.0586 34.5738 12.0586 37.4359C12.0586 40.319 9.30172 42.2341 6.58692 41.9606V41.1608C8.22842 41.0135 8.965 39.814 8.965 38.1514C8.965 35.9838 7.59708 34.8053 5.97661 34.8053H5.49258L5.24004 35.0578V45.7276C5.24004 46.3379 5.13482 46.8009 5.13482 46.8009L7.13409 46.9903L7.04991 47.6848L1.01001 47.811Z" fill="white"/>
<g clip-path="url(#clip0_1390_4477)">
<path d="M59.0895 27.7012C60.4517 27.6931 61.7842 27.3029 62.9344 26.5753C64.0845 25.8477 65.006 24.812 65.5932 23.5869C68.5075 22.5902 73.3875 21.9599 76.1309 21.5851L76.4898 21.5425H76.6351L77.0624 21.4914C78.6178 21.3466 78.3529 21.994 78.1563 22.3006C77.7355 22.7147 77.4016 23.2081 77.1742 23.7522C76.9467 24.2962 76.8303 24.88 76.8316 25.4694C76.8483 26.2398 77.0743 26.9913 77.4856 27.6438C77.8969 28.2963 78.4781 28.8253 79.1673 29.1746C79.8565 29.5238 80.6279 29.6801 81.3991 29.6268C82.1704 29.5736 82.9128 29.3127 83.5471 28.8721C84.1814 28.4315 84.6839 27.8277 85.001 27.1249C85.3181 26.4221 85.438 25.6467 85.3479 24.8814C85.2577 24.116 84.9609 23.3894 84.4891 22.7789C84.0173 22.1684 83.3882 21.6969 82.6688 21.4147C82.3099 21.074 82.7713 20.8781 83.2072 20.7844L112.889 17.4708C118.572 16.7297 117.905 12.4706 117.905 12.4706C117.858 12.4837 117.808 12.4837 117.76 12.4706C117.7 15.682 112.829 15.8779 112.829 15.8779C104.564 16.636 94.5396 17.8201 85.7284 18.51C76.9171 19.2 69.5929 19.5918 66.3368 19.6855C66.2653 18.8006 66.0367 17.9353 65.6616 17.1301C65.6099 16.9186 65.5529 16.7084 65.4907 16.4997L75.336 13.2032C75.542 13.1244 75.7285 13.0024 75.883 12.8454C75.6876 12.7715 75.4717 12.7715 75.2762 12.8454L65.0634 15.469C64.537 14.4533 63.7591 13.5884 62.8033 12.9564C61.8476 12.3243 60.7458 11.946 59.6023 11.8573L59.2091 0.340728C59.2175 0.264658 59.1979 0.188134 59.1539 0.125437C59.1098 0.0627404 59.0444 0.0181544 58.9698 0C58.9 0.0231435 58.8405 0.0698343 58.8015 0.132029C58.7625 0.194224 58.7464 0.268028 58.7562 0.340728L58.3374 11.8573C57.1939 11.946 56.092 12.3243 55.1363 12.9564C54.1806 13.5884 53.4027 14.4533 52.8763 15.469L42.6805 12.7773C42.4851 12.7033 42.2692 12.7033 42.0737 12.7773C42.2282 12.9342 42.4147 13.0563 42.6207 13.135L52.4661 16.4316C52.3977 16.636 52.3404 16.8464 52.2951 17.0619C51.92 17.8672 51.6914 18.7324 51.62 19.6174C48.3553 19.4811 40.8943 19.1233 32.2113 18.4419C23.5282 17.7604 13.4093 16.5679 5.11086 15.8098C5.11086 15.8098 0.239457 15.5712 0.179633 12.4025C0.132089 12.4155 0.0818886 12.4155 0.0343452 12.4025C0.0343452 12.4025 -0.640815 16.6616 5.05104 17.4027L34.7324 20.7162C35.1683 20.8099 35.6298 21.0059 35.2709 21.3466C34.519 21.6168 33.8561 22.088 33.3548 22.7084C32.8535 23.3289 32.533 24.0748 32.4284 24.8646C32.3237 25.6544 32.439 26.4576 32.7616 27.1865C33.0842 27.9154 33.6016 28.5419 34.2574 28.9974C34.9131 29.4528 35.6819 29.7199 36.4796 29.7692C37.2774 29.8185 38.0734 29.6482 38.7806 29.277C39.4878 28.9058 40.0789 28.3479 40.4894 27.6643C40.8999 26.9808 41.1139 26.1979 41.108 25.4012C41.1094 24.8118 40.9929 24.2281 40.7655 23.684C40.5381 23.14 40.2042 22.6465 39.7833 22.2325C39.5697 21.9769 39.3133 21.2955 40.8602 21.4744L41.2875 21.5255H41.4328L41.7917 21.5681C44.5436 21.9429 49.4236 22.5732 52.3293 23.5698C52.9166 24.795 53.838 25.8306 54.9882 26.5582C56.1384 27.2858 57.4708 27.676 58.8331 27.6841H59.0724L59.0895 27.7012ZM39.903 25.4523C39.877 26.2618 39.541 27.0307 38.9641 27.601C38.3871 28.1713 37.613 28.4997 36.8007 28.5189C36.1933 28.5139 35.601 28.3297 35.0984 27.9897C34.5958 27.6497 34.2055 27.169 33.9765 26.6083C33.7476 26.0475 33.6903 25.4317 33.8119 24.8386C33.9335 24.2454 34.2285 23.7014 34.6598 23.2751C35.0911 22.8488 35.6393 22.5593 36.2354 22.443C36.8315 22.3267 37.4488 22.3889 38.0095 22.6218C38.5702 22.8546 39.0492 23.2476 39.3862 23.7514C39.7231 24.2551 39.9029 24.8469 39.903 25.4523ZM81.1903 22.3858C82.0063 22.3858 82.7888 22.7089 83.3658 23.284C83.9428 23.8591 84.267 24.639 84.267 25.4523C84.267 26.2656 83.9428 27.0456 83.3658 27.6207C82.7888 28.1958 82.0063 28.5189 81.1903 28.5189C80.3779 28.4997 79.6038 28.1713 79.0269 27.601C78.4499 27.0307 78.1139 26.2618 78.088 25.4523C78.0868 25.0472 78.1664 24.6458 78.3223 24.2715C78.4781 23.8973 78.707 23.5577 78.9956 23.2723C79.2843 22.987 79.6269 22.7617 80.0037 22.6095C80.3804 22.4573 80.7838 22.3813 81.1903 22.3858ZM54.7394 18.0671C54.7394 17.7689 55.6539 17.4282 55.9017 17.3941C56.9516 17.274 58.0071 17.2086 59.0638 17.1982C60.0524 17.2076 61.0397 17.273 62.0209 17.3941C62.2516 17.3941 63.1319 17.7604 63.1319 18.0671L62.8499 18.9189C62.8313 19.0028 62.7809 19.0763 62.7092 19.1239C62.6375 19.1716 62.5501 19.1897 62.4653 19.1744C61.332 19.0122 60.1909 18.9099 59.0467 18.8678C57.7819 18.8678 56.235 19.0893 55.4829 19.1574C55.3933 19.1671 55.3032 19.1451 55.2282 19.0953C55.1533 19.0454 55.0982 18.971 55.0727 18.8848L54.7394 18.0671Z" fill="white"/>
</g>
<path d="M115.54 47.8217C114.208 47.8217 113.113 46.7273 113.113 45.3945C113.113 44.0616 114.208 42.9673 115.54 42.9673C116.873 42.9673 117.968 44.0616 117.968 45.3945C117.968 46.7273 116.873 47.8217 115.54 47.8217ZM115.54 47.3727C116.551 47.3727 117.449 46.4467 117.449 45.3945C117.449 44.3422 116.551 43.4303 115.54 43.4303C114.502 43.4303 113.632 44.3422 113.632 45.3945C113.632 46.4467 114.502 47.3727 115.54 47.3727ZM114.418 46.587V46.3345C114.558 46.3204 114.657 46.2363 114.657 46.124V44.6088C114.657 44.4404 114.629 44.4124 114.376 44.3422V44.1739H115.4C116.2 44.1739 116.452 44.4404 116.452 44.7631C116.452 45.0297 116.2 45.2401 115.989 45.3664C115.989 45.3664 116.074 45.5488 116.186 45.7031L116.495 46.1521C116.621 46.3345 116.719 46.3204 116.817 46.3345L116.803 46.573L116.017 46.587C116.017 46.587 115.947 46.4046 115.793 46.1661L115.414 45.6049H115.302V46.124C115.302 46.2222 115.274 46.2924 115.274 46.2924L115.625 46.3345L115.611 46.559L114.418 46.587ZM115.302 44.4545V45.3243H115.526C115.611 45.3103 115.779 45.184 115.779 44.8754C115.779 44.6509 115.639 44.4545 115.344 44.4545H115.302Z" fill="white"/>
<defs>
<clipPath id="clip0_1390_4477">
<rect width="117.939" height="29.8137" fill="white"/>
</clipPath>
</defs>
</svg>
